<?xml version="1.0" encoding="UTF-8"?>
<!DOCTYPE svg PUBLIC "-//W3C//DTD SVG 1.1//EN" "http://www.w3.org/Graphics/SVG/1.1/DTD/svg11.dtd">
<!-- Creator: CorelDRAW X6 -->
<svg xmlns="http://www.w3.org/2000/svg" xml:space="preserve" width="300mm" height="210mm" version="1.1" style="shape-rendering:geometricPrecision; text-rendering:geometricPrecision; image-rendering:optimizeQuality; fill-rule:evenodd; clip-rule:evenodd"
viewBox="0 0 30000 21000"
 xmlns:xlink="http://www.w3.org/1999/xlink">
 <defs>
  <style type="text/css">
   <![CDATA[
    .fil0 {fill:#FEFEFE}
    .fil1 {fill:#FEFEFE;fill-rule:nonzero}
   ]]>
  </style>
 </defs>
 <g id="Capa_x0020_1">
  <metadata id="CorelCorpID_0Corel-Layer"/>
  <polygon class="fil0" points="12509,10347 13572,10355 12320,9221 15218,9229 15218,8441 12336,8449 13588,7299 12517,7299 10824,8835 "/>
  <g>
   <path class="fil1" d="M16295 8858l-463 0 0 0 -4 -142 -11 -140 -17 -137 -24 -135 -31 -133 -37 -130 -43 -127 -49 -125 -55 -122 -61 -118 -66 -115 -71 -111 -77 -108 -82 -104 -86 -100 -91 -95 -95 -91 -100 -86 -104 -82 -108 -77 -111 -71 -115 -66 -118 -61 -122 -55 -125 -49 -127 -43 -130 -37 -133 -31 -135 -24 -137 -17 -140 -11 -142 -4 0 -463 165 4 163 12 161 20 158 28 155 36 152 43 149 50 146 57 142 64 138 71 134 77 130 83 126 89 121 95 116 101 111 106 106 111 101 116 95 121 89 126 83 130 77 134 71 138 64 142 57 146 50 149 43 152 36 155 28 158 20 161 12 163 4 165 0 0zm-3208 3208l0 -463 0 0 142 -4 140 -11 137 -17 135 -24 133 -31 130 -37 127 -43 125 -49 122 -55 118 -61 115 -66 111 -71 108 -77 104 -82 100 -86 95 -91 91 -95 86 -100 82 -104 77 -108 71 -111 66 -115 61 -118 55 -122 49 -125 43 -127 37 -130 31 -133 24 -135 17 -137 11 -140 4 -142 463 0 -4 165 -12 163 -20 161 -28 158 -36 155 -43 152 -50 149 -57 146 -64 142 -71 138 -77 134 -83 130 -89 126 -95 121 -101 116 -106 111 -111 106 -116 101 -121 95 -126 89 -130 83 -134 77 -138 71 -142 64 -146 57 -149 50 -152 43 -155 36 -158 28 -161 20 -163 12 -165 4 0 0zm-3208 -3208l463 0 0 0 4 142 11 140 17 137 24 135 31 133 37 130 43 127 49 125 55 122 61 118 66 115 71 111 77 108 82 104 86 100 91 95 95 91 100 86 104 82 108 77 111 71 115 66 118 61 122 55 125 49 127 43 130 37 133 31 135 24 137 17 140 11 142 4 0 463 -165 -4 -163 -12 -161 -20 -158 -28 -155 -36 -152 -43 -149 -50 -146 -57 -142 -64 -138 -71 -134 -77 -130 -83 -126 -89 -121 -95 -116 -101 -111 -106 -106 -111 -101 -116 -95 -121 -89 -126 -83 -130 -77 -134 -71 -138 -64 -142 -57 -146 -50 -149 -43 -152 -36 -155 -28 -158 -20 -161 -12 -163 -4 -165 0 0zm3208 -3208l0 463 0 0 -142 4 -140 11 -137 17 -135 24 -133 31 -130 37 -127 43 -125 49 -122 55 -118 61 -115 66 -111 71 -108 77 -104 82 -100 86 -95 91 -91 95 -86 100 -82 104 -77 108 -71 111 -66 115 -61 118 -55 122 -49 125 -43 127 -37 130 -31 133 -24 135 -17 137 -11 140 -4 142 -463 0 4 -165 12 -163 20 -161 28 -158 36 -155 43 -152 50 -149 57 -146 64 -142 71 -138 77 -134 83 -130 89 -126 95 -121 101 -116 106 -111 111 -106 116 -101 121 -95 126 -89 130 -83 134 -77 138 -71 142 -64 146 -57 149 -50 152 -43 155 -36 158 -28 161 -20 163 -12 165 -4 0 0z"/>
  </g>
 </g>
</svg>
