<?xml version="1.0" encoding="UTF-8"?>
<!DOCTYPE svg PUBLIC "-//W3C//DTD SVG 1.1//EN" "http://www.w3.org/Graphics/SVG/1.1/DTD/svg11.dtd">
<!-- Creator: CorelDRAW X6 -->
<svg xmlns="http://www.w3.org/2000/svg" xml:space="preserve" width="300mm" height="210mm" version="1.1" style="shape-rendering:geometricPrecision; text-rendering:geometricPrecision; image-rendering:optimizeQuality; fill-rule:evenodd; clip-rule:evenodd"
viewBox="0 0 30000 21000"
 xmlns:xlink="http://www.w3.org/1999/xlink">
 <defs>
  <style type="text/css">
   <![CDATA[
    .str0 {stroke:#FEFEFE;stroke-width:180.83;stroke-linecap:round;stroke-linejoin:round}
    .fil1 {fill:none}
    .fil0 {fill:#00AFEF}
    .fil2 {fill:#FEFEFE}
    .fil3 {fill:#FEFEFE;fill-rule:nonzero}
   ]]>
  </style>
 </defs>
 <g id="Capa_x0020_1">
  <metadata id="CorelCorpID_0Corel-Layer"/>
  <g id="_706130912">
   <rect class="fil0" x="7917" y="3510" width="12057" height="14066"/>
   <g>
    <rect class="fil1 str0" x="11315" y="8414" width="5206" height="4268" rx="498" ry="498"/>
    <path class="fil2" d="M12071 12175l3690 27c105,1 182,-81 124,-210l-1279 -2888c-68,-153 -255,-194 -325,-19l-775 1914 -469 -919c-78,-154 -217,-214 -306,-29 -300,623 -542,1273 -775,1923 -39,108 28,200 115,201z"/>
    <g>
     <path class="fil3" d="M18599 10436l-544 0 0 0 -5 -211 -16 -208 -26 -205 -36 -201 -46 -198 -55 -194 -65 -190 -74 -186 -82 -181 -91 -176 -99 -171 -107 -166 -115 -160 -122 -155 -130 -149 -136 -142 -143 -136 -150 -129 -156 -122 -162 -114 -167 -106 -173 -99 -178 -90 -182 -82 -187 -73 -191 -64 -195 -55 -199 -46 -203 -36 -206 -26 -209 -16 -212 -5 0 -542 240 6 237 18 233 29 230 41 226 52 221 62 217 73 212 83 207 93 201 102 195 112 189 121 183 129 176 138 169 146 162 153 154 161 147 168 138 175 130 182 121 188 112 194 103 200 93 205 84 211 73 216 63 220 52 224 41 228 30 232 18 235 6 238 0 0zm-4664 4635l0 -542 0 0 212 -5 209 -16 206 -26 203 -36 199 -46 195 -55 191 -64 187 -73 182 -82 178 -90 173 -99 167 -106 162 -114 156 -122 150 -129 143 -136 136 -142 130 -149 122 -155 115 -160 107 -166 99 -171 91 -176 82 -181 74 -186 65 -190 55 -194 46 -198 36 -201 26 -205 16 -208 5 -211 544 0 -6 238 -18 235 -30 232 -41 228 -52 224 -63 220 -73 215 -84 211 -93 205 -103 200 -112 194 -121 188 -130 182 -138 175 -147 168 -154 161 -162 153 -169 146 -176 138 -183 129 -189 121 -195 112 -201 102 -207 93 -212 83 -217 73 -221 62 -226 52 -230 41 -233 29 -237 18 -240 6 0 0zm-4664 -4635l544 0 0 0 5 211 16 208 26 205 36 201 46 198 55 194 65 190 74 186 82 181 91 176 99 171 107 166 115 160 122 155 130 149 136 142 143 136 150 129 156 122 162 114 167 106 173 99 178 90 182 82 187 73 191 64 195 55 199 46 203 36 206 26 209 16 212 5 0 542 -240 -6 -237 -18 -233 -29 -230 -41 -226 -52 -221 -62 -217 -73 -212 -83 -207 -93 -201 -102 -195 -112 -189 -121 -183 -129 -176 -138 -169 -146 -162 -153 -154 -161 -147 -168 -138 -175 -130 -182 -121 -188 -112 -194 -103 -200 -93 -205 -84 -211 -73 -215 -63 -220 -52 -224 -41 -228 -30 -232 -18 -235 -6 -238 0 0zm4664 -4635l0 542 0 0 -212 5 -209 16 -206 26 -203 36 -199 46 -195 55 -191 64 -187 73 -182 82 -178 90 -173 99 -167 106 -162 114 -156 122 -150 129 -143 136 -136 142 -130 149 -122 155 -115 160 -107 166 -99 171 -91 176 -82 181 -74 186 -65 190 -55 194 -46 198 -36 201 -26 205 -16 208 -5 211 -544 0 6 -238 18 -235 30 -232 41 -228 52 -224 63 -220 73 -215 84 -211 93 -205 103 -200 112 -194 121 -188 130 -182 138 -175 147 -168 154 -161 162 -153 169 -146 176 -138 183 -129 189 -121 195 -112 201 -102 207 -93 212 -83 217 -73 221 -62 226 -52 230 -41 233 -29 237 -18 240 -6 0 0z"/>
    </g>
   </g>
  </g>
 </g>
</svg>
